<svg width="81" height="75" viewBox="0 0 81 75" fill="none" xmlns="http://www.w3.org/2000/svg">
<path fill-rule="evenodd" clip-rule="evenodd" d="M0.575405 46.3091C0.987172 45.4333 1.71835 44.96 2.67802 44.7148C3.58058 44.4842 4.46228 44.18 5.35378 43.9103C6.74899 43.4881 7.88484 43.9359 8.29953 45.0695C8.71317 46.2002 8.09229 47.2449 6.71959 47.6914C5.78535 47.9954 4.84214 48.2748 3.90206 48.5629C2.15471 49.0984 1.46399 48.8455 0.575195 47.3483C0.575404 47.0021 0.575405 46.6554 0.575405 46.3091Z" fill="#7334AE"/>
<path fill-rule="evenodd" clip-rule="evenodd" d="M80.6312 47.3508C79.7436 48.8489 79.051 49.1034 77.3051 48.5683C76.3158 48.2653 75.3209 47.9762 74.3398 47.6502C73.126 47.2473 72.5349 46.2108 72.8758 45.1452C73.2242 44.0552 74.3754 43.4894 75.6299 43.8435C76.8004 44.1738 77.9973 44.4709 79.0977 44.9565C79.6998 45.2222 80.126 45.848 80.6312 46.3114C80.6312 46.6577 80.6312 47.0045 80.6312 47.3508Z" fill="#7334AE"/>
<path fill-rule="evenodd" clip-rule="evenodd" d="M75.9889 25.8799C75.9989 27.3783 75.3678 28.6016 74.2486 29.6349C70.1958 33.3771 66.1559 37.1321 62.0984 40.87C61.5933 41.3351 61.3556 41.7844 61.4884 42.4999C62.491 47.9026 63.4572 53.3117 64.4108 58.7226C64.7554 60.6792 64.0472 62.304 62.4099 63.4959C60.742 64.7103 58.8625 64.9238 56.9694 64.0347C54.4519 62.8519 51.9836 61.5745 49.4959 60.3347C46.8468 59.0143 44.1917 57.7044 41.5576 56.3575C40.8915 56.0167 40.3365 56.0157 39.6606 56.3565C34.6293 58.8949 29.5905 61.4204 24.5332 63.9123C21.0823 65.6127 17.0801 63.624 16.763 59.9862C16.6583 58.784 16.9975 57.5359 17.2125 56.3214C18.041 51.6424 18.8946 46.9676 19.7577 42.2943C19.8755 41.6561 19.5401 41.2717 19.1154 40.8793C15.1022 37.1694 11.1075 33.441 7.07699 29.7482C5.41887 28.229 4.77255 26.4446 5.47745 24.3644C6.19341 22.2515 7.84006 21.1822 10.1583 20.8775C15.7258 20.1456 21.2816 19.3333 26.846 18.581C27.5538 18.4854 27.9478 18.1632 28.2493 17.5787C30.7558 12.7203 33.2737 7.86699 35.8048 3.02007C37.0194 0.694127 39.5271 -0.394387 42.0599 0.29393C43.6588 0.728385 44.7398 1.72838 45.4674 3.13789C47.941 7.92937 50.4495 12.7046 52.9145 17.5001C53.2604 18.1729 53.7055 18.4886 54.4998 18.5943C60.1176 19.3416 65.7278 20.1397 71.342 20.9127C74.0574 21.2872 75.9743 23.3254 75.9889 25.8799ZM24.0236 42.0367C24.0049 42.1941 23.9859 42.4662 23.9382 42.7335C22.971 48.1428 22.0057 53.5525 21.0224 58.9593C20.9284 59.4751 20.8627 59.9452 21.3508 60.3084C21.8808 60.7032 22.3716 60.4709 22.8715 60.221C27.7984 57.7581 32.7414 55.3242 37.6497 52.8286C39.6358 51.8185 41.5234 51.7957 43.5141 52.806C48.4476 55.3097 53.4111 57.7602 58.3604 60.2355C58.836 60.4733 59.3076 60.6913 59.8163 60.3373C60.3106 59.9931 60.2908 59.5319 60.1943 59.0048C59.2373 53.7943 58.331 48.5755 57.3466 43.3699C56.9373 41.2066 57.5309 39.463 59.2044 37.9393C63.2291 34.2755 67.1956 30.5541 71.1944 26.8646C71.6934 26.4042 72.0332 25.8896 71.5318 25.3248C71.2855 25.0478 70.7831 24.9001 70.3734 24.8418C64.9164 24.0678 59.4602 23.2846 53.9928 22.5824C51.7305 22.2919 50.1528 21.284 49.1533 19.3228C46.9096 14.9197 44.6049 10.5442 42.3242 6.15769C42.0824 5.69254 41.8937 5.18918 41.5737 4.77848C41.3529 4.49492 40.9401 4.16145 40.6292 4.17531C40.276 4.19095 39.9247 4.55036 39.6053 4.79829C39.4769 4.89809 39.4348 5.09868 39.3541 5.25353C36.9016 9.97293 34.435 14.6856 32.0042 19.4149C31.0992 21.1759 29.6848 22.2363 27.647 22.5226C24.7119 22.9353 21.774 23.3292 18.8381 23.7345C16.0564 24.1183 13.2741 24.4973 10.4954 24.8987C9.62306 25.0246 9.19983 25.6686 9.54029 26.3153C9.66351 26.5494 9.8941 26.7385 10.0974 26.927C14.1056 30.643 18.1092 34.363 22.1322 38.0644C23.2916 39.1309 23.9765 40.3767 24.0236 42.0367Z" fill="#7334AE"/>
<path fill-rule="evenodd" clip-rule="evenodd" d="M42.6768 71.243C42.6768 71.9092 42.7315 72.5807 42.6643 73.2409C42.5588 74.2764 41.6759 74.9825 40.5982 74.9799C39.5251 74.9776 38.6054 74.2629 38.5489 73.228C38.4751 71.8739 38.4753 70.511 38.545 69.1567C38.5986 68.1149 39.5028 67.3948 40.5734 67.383C41.689 67.3707 42.5724 68.0885 42.6716 69.1701C42.7348 69.8561 42.6835 70.5515 42.6835 71.2426C42.6814 71.2428 42.6793 71.2428 42.6768 71.243Z" fill="#7334AE"/>
<path fill-rule="evenodd" clip-rule="evenodd" d="M17.5034 2.47852C17.8092 2.67298 18.4566 2.92625 18.8631 3.37596C19.6742 4.27281 20.3761 5.26274 21.0802 6.24217C21.7943 7.23526 21.5768 8.40579 20.6103 9.06303C19.6714 9.70127 18.448 9.53294 17.7004 8.60678C16.9092 7.62656 16.1494 6.62178 15.4137 5.60314C14.9314 4.9354 14.9262 4.20192 15.3459 3.49893C15.736 2.84545 16.3661 2.53812 17.5034 2.47852Z" fill="#7334AE"/>
<path fill-rule="evenodd" clip-rule="evenodd" d="M66.2038 4.55971C66.028 4.96209 65.9159 5.40487 65.6649 5.75893C64.9971 6.70171 64.2842 7.61696 63.5616 8.52331C62.7535 9.53718 61.5238 9.74431 60.5496 9.06312C59.5586 8.37024 59.3841 7.213 60.152 6.17537C60.8852 5.18466 61.627 4.19772 62.4166 3.24762C63.0066 2.53731 63.8877 2.3482 64.7356 2.64424C65.5883 2.94187 66.1119 3.65713 66.2038 4.55971Z" fill="#7334AE"/>
</svg>
