<svg width="36" height="36" viewBox="0 0 36 36" fill="none" xmlns="http://www.w3.org/2000/svg">
<circle cx="18" cy="18" r="16.7" fill="#5B44B0" fill-opacity="0.1" stroke="#7334AE" stroke-width="1.4" stroke-linejoin="round"/>
<path d="M18.2918 26C16.3904 26 14.652 25.2846 13.3079 24.1012L10 24.5665L11.2779 21.319C10.8327 20.3074 10.5829 19.1844 10.5829 18C10.5829 13.582 14.0343 10 18.2918 10C22.5489 10 26 13.582 26 18C26 22.4188 22.5491 26 18.2918 26ZM22.5009 17.9771V17.9549C22.5009 15.6464 20.9198 14.0002 18.1936 14.0002H15.2491V22.0003H18.15C20.8974 22.0003 22.5009 20.2855 22.5009 17.9771ZM18.2261 20.0347H17.3648V15.9664H18.2261C19.491 15.9664 20.3306 16.7089 20.3306 17.9895V18.0117C20.3306 19.3031 19.491 20.0347 18.2261 20.0347Z" fill="white"/>
</svg>
