<svg width="10" height="7" viewBox="0 0 10 7" fill="none" xmlns="http://www.w3.org/2000/svg">
<path fill-rule="evenodd" clip-rule="evenodd" d="M10 1.09869C9.84513 0.718699 9.49267 0.747212 9.2496 0.994065C7.8705 2.3947 6.47829 3.78244 5.09081 5.17485C5.06342 5.20234 5.0394 5.23317 4.9836 5.29698C4.95582 5.24928 4.94227 5.20934 4.91553 5.18252C3.51493 3.77563 2.11324 2.36982 0.71151 0.964014C0.550245 0.802285 0.396108 0.763373 0.229399 0.835583C0.109878 0.887385 0.0528518 0.990452 0 1.09869C0 1.15728 0 1.21587 0 1.27449C0.070404 1.36964 0.130189 1.47537 0.212799 1.55844C1.69275 3.04716 3.17543 4.53318 4.65767 6.01962C4.6898 6.05185 4.72166 6.0849 4.75715 6.11315C4.90294 6.22923 5.09745 6.22915 5.24307 6.11303C5.27852 6.08471 5.3104 6.05168 5.3425 6.01945C6.82477 4.53301 8.30743 3.04701 9.78737 1.5583C9.86991 1.47527 9.92967 1.36962 10 1.27449C10 1.2159 10 1.15728 10 1.09869Z" fill="#9BA7BF"/>
</svg>
