<svg width="36" height="36" viewBox="0 0 36 36" fill="none" xmlns="http://www.w3.org/2000/svg">
<circle cx="18" cy="18" r="16.7" fill="#5B44B0" fill-opacity="0.1" stroke="#7334AE" stroke-width="1.4" stroke-linejoin="round"/>
<path d="M11.3768 21.1019C12.5645 19.3639 14.8582 19.2191 15.9879 19.3761C15.6737 19.026 14.8817 18.3744 15.4406 17.3003C12.8905 17.6259 12.0756 15.9967 11.9592 14.7173C11.7263 12.569 13.5425 11.0244 15.4055 11H19.5274C19.3877 11.1329 18.7006 11.6037 18.5376 11.6037L17.4548 11.6156C20.2144 14.307 17.5361 16.564 16.9888 17.0345C15.8827 18.4223 19.3526 19.1103 19.1663 21.4639C19.1663 23.5999 17.4315 25 14.7185 25C11.7027 24.9881 10.2591 23.0451 11.3768 21.1019ZM17.42 23.6968C18.5029 22.8398 18.2467 21.5726 17.4082 20.7276C16.9075 20.2208 16.3021 19.7381 15.0212 19.8948C13.5189 20.076 12.4245 20.8242 12.4829 21.9948C12.7971 24.4813 16.2555 24.5414 17.4197 23.6845V23.6968H17.42ZM16.6864 16.3951C17.9323 15.3329 16.7795 11.6281 15.0795 11.6281C13.9967 11.6281 13.4378 12.4364 13.391 13.5833C13.3096 15.7071 15.1844 17.6745 16.6864 16.3951ZM22.1938 17.7466L20.3193 17.7588V16.7812H22.1708V14.8624H23.114V16.7815L24.9885 16.7934L25 17.7591H23.114V19.6902L22.1823 19.7024L22.1938 17.7466Z" fill="white"/>
</svg>
