<svg width="36" height="36" viewBox="0 0 36 36" fill="none" xmlns="http://www.w3.org/2000/svg">
<circle cx="18" cy="18" r="16.7" fill="#5B44B0" fill-opacity="0.1" stroke="#7334AE" stroke-width="1.4" stroke-linejoin="round"/>
<g clip-path="url(#clip0_932_1696)">
<path d="M25 13.6591C24.4794 13.8875 23.9246 14.0389 23.3462 14.1124C23.9412 13.7571 24.3954 13.1989 24.6089 12.526C24.0541 12.8567 23.4416 13.0904 22.7889 13.2208C22.2621 12.6599 21.5114 12.3125 20.6924 12.3125C19.1034 12.3125 17.8241 13.6023 17.8241 15.1834C17.8241 15.4109 17.8434 15.6296 17.8906 15.8379C15.5045 15.7215 13.3931 14.5779 11.9747 12.8358C11.7271 13.2654 11.5819 13.7571 11.5819 14.2865C11.5819 15.2805 12.0938 16.1616 12.8568 16.6718C12.3956 16.663 11.9433 16.5291 11.56 16.3183C11.56 16.327 11.56 16.3384 11.56 16.3498C11.56 17.7445 12.5549 18.903 13.8595 19.1699C13.6259 19.2337 13.3712 19.2644 13.107 19.2644C12.9232 19.2644 12.7377 19.2539 12.5636 19.2154C12.9355 20.352 13.9908 21.1876 15.2455 21.2148C14.269 21.9786 13.0291 22.4389 11.6869 22.4389C11.4515 22.4389 11.2257 22.4284 11 22.3995C12.2714 23.2194 13.7781 23.6875 15.403 23.6875C20.6845 23.6875 23.572 19.3125 23.572 15.5202C23.572 15.3934 23.5676 15.2709 23.5615 15.1493C24.1311 14.745 24.6097 14.2401 25 13.6591Z" fill="white"/>
</g>
<defs>
<clipPath id="clip0_932_1696">
<rect width="14" height="14" fill="white" transform="translate(11 11)"/>
</clipPath>
</defs>
</svg>
