<svg width="10" height="7" viewBox="0 0 10 7" fill="none" xmlns="http://www.w3.org/2000/svg">
<path fill-rule="evenodd" clip-rule="evenodd" d="M10 5.90131C9.84513 6.2813 9.49267 6.25279 9.2496 6.00593C7.8705 4.6053 6.47829 3.21756 5.09081 1.82515C5.06342 1.79766 5.0394 1.76683 4.9836 1.70302C4.95581 1.75072 4.94227 1.79066 4.91553 1.81748C3.51493 3.22437 2.11324 4.63018 0.71151 6.03599C0.550245 6.19771 0.396108 6.23663 0.229399 6.16442C0.109878 6.11261 0.0528518 6.00955 0 5.90131C0 5.84272 0 5.78413 0 5.72551C0.070404 5.63036 0.130189 5.52463 0.212799 5.44156C1.69275 3.95284 3.17543 2.46682 4.65767 0.980375C4.6898 0.948152 4.72166 0.915098 4.75715 0.886853C4.90294 0.770774 5.09745 0.770847 5.24307 0.886975C5.27852 0.915292 5.3104 0.948322 5.3425 0.980546C6.82477 2.46699 8.30743 3.95299 9.78737 5.4417C9.86991 5.52473 9.92967 5.63038 10 5.72551C10 5.7841 10 5.84272 10 5.90131Z" fill="#9BA7BF"/>
</svg>
