<svg width="130" height="26" viewBox="0 0 130 26" fill="none" xmlns="http://www.w3.org/2000/svg">
<path d="M13 0L17.6611 6.5845L25.3637 8.98278L20.5419 15.4505L20.6412 23.5172L13 20.93L5.35879 23.5172L5.45812 15.4505L0.636266 8.98278L8.33886 6.5845L13 0Z" fill="#FFC403"/>
<path d="M39 0L43.6611 6.5845L51.3637 8.98278L46.5419 15.4505L46.6412 23.5172L39 20.93L31.3588 23.5172L31.4581 15.4505L26.6363 8.98278L34.3389 6.5845L39 0Z" fill="#FFC403"/>
<path d="M65 0L69.6611 6.5845L77.3637 8.98278L72.5419 15.4505L72.6412 23.5172L65 20.93L57.3588 23.5172L57.4581 15.4505L52.6363 8.98278L60.3389 6.5845L65 0Z" fill="#FFC403"/>
<path d="M91 0L95.6611 6.5845L103.364 8.98278L98.5419 15.4505L98.6412 23.5172L91 20.93L83.3588 23.5172L83.4581 15.4505L78.6363 8.98278L86.3389 6.5845L91 0Z" fill="#FFC403"/>
<path d="M117 0L121.661 6.5845L129.364 8.98278L124.542 15.4505L124.641 23.5172L117 20.93L109.359 23.5172L109.458 15.4505L104.636 8.98278L112.339 6.5845L117 0Z" fill="#FFC403"/>
</svg>
