<svg width="19" height="14" viewBox="0 0 19 14" fill="none" xmlns="http://www.w3.org/2000/svg">
<path d="M16.6263 0.166626H2.3763C1.50547 0.166626 0.792969 0.879126 0.792969 1.74996V12.0416C0.792969 12.9125 1.50547 13.625 2.3763 13.625H16.6263C17.4971 13.625 18.2096 12.9125 18.2096 12.0416V1.74996C18.2096 0.879126 17.4971 0.166626 16.6263 0.166626ZM2.3763 12.0416V1.74996H8.70963V12.0416H2.3763ZM16.6263 12.0416H10.293V1.74996H16.6263V12.0416ZM11.0846 4.52079H15.8346V5.70829H11.0846V4.52079ZM11.0846 6.49996H15.8346V7.68746H11.0846V6.49996ZM11.0846 8.47913H15.8346V9.66663H11.0846V8.47913Z" fill="#7334AE"/>
</svg>
