<svg width="43" height="43" viewBox="0 0 43 43" fill="none" xmlns="http://www.w3.org/2000/svg">
<rect x="1.3" y="1.3" width="40.4" height="40.4" rx="6.7" fill="#5B44B0"/>
<path d="M27.75 25.7497C26.9583 25.7497 26.25 26.0622 25.7083 26.5518L18.2812 22.2288C18.3333 21.9893 18.375 21.7497 18.375 21.4997C18.375 21.2497 18.3333 21.0101 18.2812 20.7705L25.625 16.4893C26.1875 17.0101 26.9271 17.333 27.75 17.333C29.4792 17.333 30.875 15.9372 30.875 14.208C30.875 12.4788 29.4792 11.083 27.75 11.083C26.0208 11.083 24.625 12.4788 24.625 14.208C24.625 14.458 24.6667 14.6976 24.7188 14.9372L17.375 19.2184C16.8125 18.6976 16.0729 18.3747 15.25 18.3747C13.5208 18.3747 12.125 19.7705 12.125 21.4997C12.125 23.2288 13.5208 24.6247 15.25 24.6247C16.0729 24.6247 16.8125 24.3018 17.375 23.7809L24.7917 28.1143C24.7396 28.333 24.7083 28.5622 24.7083 28.7913C24.7083 30.4684 26.0729 31.833 27.75 31.833C29.4271 31.833 30.7917 30.4684 30.7917 28.7913C30.7917 27.1143 29.4271 25.7497 27.75 25.7497ZM27.75 13.1663C28.3229 13.1663 28.7917 13.6351 28.7917 14.208C28.7917 14.7809 28.3229 15.2497 27.75 15.2497C27.1771 15.2497 26.7083 14.7809 26.7083 14.208C26.7083 13.6351 27.1771 13.1663 27.75 13.1663ZM15.25 22.5413C14.6771 22.5413 14.2083 22.0726 14.2083 21.4997C14.2083 20.9268 14.6771 20.458 15.25 20.458C15.8229 20.458 16.2917 20.9268 16.2917 21.4997C16.2917 22.0726 15.8229 22.5413 15.25 22.5413ZM27.75 29.8538C27.1771 29.8538 26.7083 29.3851 26.7083 28.8122C26.7083 28.2393 27.1771 27.7705 27.75 27.7705C28.3229 27.7705 28.7917 28.2393 28.7917 28.8122C28.7917 29.3851 28.3229 29.8538 27.75 29.8538Z" fill="white"/>
<rect x="1.3" y="1.3" width="40.4" height="40.4" rx="6.7" stroke="#7334AE" stroke-width="1.4" stroke-linejoin="round"/>
</svg>
