<svg width="48" height="49" viewBox="0 0 48 49" fill="none" xmlns="http://www.w3.org/2000/svg">
<circle cx="24" cy="24.0244" r="23.5" fill="#1C0025" stroke="#7334AE"/>
<path fill-rule="evenodd" clip-rule="evenodd" d="M20.0888 32.4754C19.4723 32.2241 19.5186 31.6522 19.9191 31.2578C22.1917 29.0202 24.4433 26.7613 26.7026 24.51C26.7472 24.4656 26.7972 24.4266 26.9007 24.3361C26.8233 24.291 26.7585 24.269 26.715 24.2256C24.4323 21.9531 22.1513 19.6788 19.8703 17.4044C19.6079 17.1428 19.5448 16.8927 19.6619 16.6222C19.746 16.4283 19.9132 16.3358 20.0888 16.25C20.1839 16.25 20.279 16.25 20.3741 16.25C20.5285 16.3642 20.7 16.4612 20.8348 16.5953C23.2503 18.9965 25.6614 21.4022 28.0732 23.8072C28.1255 23.8594 28.1791 23.9111 28.225 23.9686C28.4133 24.2052 28.4132 24.5208 28.2248 24.7571C28.1788 24.8146 28.1252 24.8663 28.0729 24.9184C25.6611 27.3234 23.2501 29.7291 20.8346 32.1304C20.6999 32.2643 20.5284 32.3612 20.3741 32.4754C20.279 32.4754 20.1839 32.4754 20.0888 32.4754Z" fill="white"/>
</svg>
